<?xml version="1.0" encoding="utf-8"?>
<!-- Generator: Adobe Illustrator 14.0.0, SVG Export Plug-In  -->
<!DOCTYPE svg PUBLIC "-//W3C//DTD SVG 1.1//EN" "http://www.w3.org/Graphics/SVG/1.1/DTD/svg11.dtd" [
	<!ENTITY ns_flows "http://ns.adobe.com/Flows/1.0/">
]>
<svg version="1.1"
	 xmlns="http://www.w3.org/2000/svg" xmlns:xlink="http://www.w3.org/1999/xlink" xmlns:a="http://ns.adobe.com/AdobeSVGViewerExtensions/3.0/"
	 x="0px" y="0px" width="100%" height="100%" viewBox="0 0 994 1517"
	  preserveAspectRatio="none"
         meetOrSlice="slice" xml:space="preserve">
<defs>
	<symbol  id="_x12_360519136_65408_0_x00_" viewBox="-51.5 -50.5 103 101">
		<polygon fill="#FE0000" stroke="#210000" stroke-width="3" points="50,-49 -50,-49 -50,49 50,49 		"/>
	</symbol>
	<symbol  id="_x12_360519136_65408_12_x00_" viewBox="-51.5 -50.5 103 101">
		<polygon fill="#F30000" stroke="#1F0000" stroke-width="3" points="50,-49 -50,-49 -50,49 50,49 		"/>
	</symbol>
	<symbol  id="_x12_360519136_65408_18_x00_" viewBox="-51.5 -50.5 103 101">
		<polygon fill="#EC0000" stroke="#1F0000" stroke-width="3" points="50,-49 -50,-49 -50,49 50,49 		"/>
	</symbol>
	<symbol  id="_x12_360519136_65408_2_x00_" viewBox="-51.5 -50.5 103 101">
		<polygon fill="#FD0000" stroke="#210000" stroke-width="3" points="50,-49 -50,-49 -50,49 50,49 		"/>
	</symbol>
	<symbol  id="_x12_360519136_65408_20_x00_" viewBox="-51.5 -50.5 103 101">
		<polygon fill="#EB0000" stroke="#1E0000" stroke-width="3" points="50,-49 -50,-49 -50,49 50,49 		"/>
	</symbol>
	<symbol  id="_x12_360519136_65408_21_x00_" viewBox="-51.5 -50.5 103 101">
		<polygon fill="#EA0000" stroke="#1E0000" stroke-width="3" points="50,-49 -50,-49 -50,49 50,49 		"/>
	</symbol>
	<symbol  id="_x12_360519136_65408_22_x00_" viewBox="-51.5 -50.5 103 101">
		<polygon fill="#E80000" stroke="#1E0000" stroke-width="3" points="50,-49 -50,-49 -50,49 50,49 		"/>
	</symbol>
	<symbol  id="_x12_360519136_65408_24_x00_" viewBox="-51.5 -50.5 103 101">
		<polygon fill="#E60000" stroke="#1E0000" stroke-width="3" points="50,-49 -50,-49 -50,49 50,49 		"/>
	</symbol>
	<symbol  id="_x12_360519136_65408_25_x00_" viewBox="-51.5 -50.5 103 101">
		<polygon fill="#E50000" stroke="#1E0000" stroke-width="3" points="50,-49 -50,-49 -50,49 50,49 		"/>
	</symbol>
	<symbol  id="_x12_360519136_65408_27_x00_" viewBox="-51.5 -50.5 103 101">
		<polygon fill="#E30000" stroke="#1D0000" stroke-width="3" points="50,-49 -50,-49 -50,49 50,49 		"/>
	</symbol>
	<symbol  id="_x12_360519136_65408_28_x00_" viewBox="-51.5 -50.5 103 101">
		<polygon fill="#E20000" stroke="#1D0000" stroke-width="3" points="50,-49 -50,-49 -50,49 50,49 		"/>
	</symbol>
	<symbol  id="_x12_360519136_65408_3_x00_" viewBox="-51.5 -50.5 103 101">
		<polygon fill="#FB0000" stroke="#200000" stroke-width="3" points="50,-49 -50,-49 -50,49 50,49 		"/>
	</symbol>
	<symbol  id="_x12_360519136_65408_30_x00_" viewBox="-51.5 -50.5 103 101">
		<polygon fill="#DF0000" stroke="#1D0000" stroke-width="3" points="50,-49 -50,-49 -50,49 50,49 		"/>
	</symbol>
	<symbol  id="_x12_360519136_65408_32_x00_" viewBox="-51.5 -50.5 103 101">
		<polygon fill="#DE0000" stroke="#1D0000" stroke-width="3" points="50,-49 -50,-49 -50,49 50,49 		"/>
	</symbol>
	<symbol  id="_x12_360519136_65408_33_x00_" viewBox="-51.5 -50.5 103 101">
		<polygon fill="#DD0000" stroke="#1D0000" stroke-width="3" points="50,-49 -50,-49 -50,49 50,49 		"/>
	</symbol>
	<symbol  id="_x12_360519136_65408_34_x00_" viewBox="-51.5 -50.5 103 101">
		<polygon fill="#DC0000" stroke="#1D0000" stroke-width="3" points="50,-49 -50,-49 -50,49 50,49 		"/>
	</symbol>
	<symbol  id="_x12_360519136_65408_35_x00_" viewBox="-51.5 -50.5 103 101">
		<polygon fill="#DB0000" stroke="#1C0000" stroke-width="3" points="50,-49 -50,-49 -50,49 50,49 		"/>
	</symbol>
	<symbol  id="_x12_360519136_65408_36_x00_" viewBox="-51.5 -50.5 103 101">
		<polygon fill="#DA0000" stroke="#1C0000" stroke-width="3" points="50,-49 -50,-49 -50,49 50,49 		"/>
	</symbol>
	<symbol  id="_x12_360519136_65408_37_x00_" viewBox="-51.5 -50.5 103 101">
		<polygon fill="#D90000" stroke="#1C0000" stroke-width="3" points="50,-49 -50,-49 -50,49 50,49 		"/>
	</symbol>
	<symbol  id="_x12_360519136_65408_39_x00_" viewBox="-51.5 -50.5 103 101">
		<polygon fill="#D70000" stroke="#1C0000" stroke-width="3" points="50,-49 -50,-49 -50,49 50,49 		"/>
	</symbol>
	<symbol  id="_x12_360519136_65408_4_x00_" viewBox="-51.5 -50.5 103 101">
		<polygon fill="#FB0000" stroke="#200000" stroke-width="3" points="50,-49 -50,-49 -50,49 50,49 		"/>
	</symbol>
	<symbol  id="_x12_360519136_65408_40_x00_" viewBox="-51.5 -50.5 103 101">
		<polygon fill="#D60000" stroke="#1C0000" stroke-width="3" points="50,-49 -50,-49 -50,49 50,49 		"/>
	</symbol>
	<symbol  id="_x12_360519136_65408_42_x00_" viewBox="-51.5 -50.5 103 101">
		<polygon fill="#D40000" stroke="#1B0000" stroke-width="3" points="50,-49 -50,-49 -50,49 50,49 		"/>
	</symbol>
	<symbol  id="_x12_360519136_65408_44_x00_" viewBox="-51.5 -50.5 103 101">
		<polygon fill="#D10000" stroke="#1B0000" stroke-width="3" points="50,-49 -50,-49 -50,49 50,49 		"/>
	</symbol>
	<symbol  id="_x12_360519136_65408_45_x00_" viewBox="-51.5 -50.5 103 101">
		<polygon fill="#D10000" stroke="#1B0000" stroke-width="3" points="50,-49 -50,-49 -50,49 50,49 		"/>
	</symbol>
	<symbol  id="_x12_360519136_65408_48_x00_" viewBox="-51.5 -50.5 103 101">
		<polygon fill="#CE0000" stroke="#1B0000" stroke-width="3" points="50,-49 -50,-49 -50,49 50,49 		"/>
	</symbol>
	<symbol  id="_x12_360519136_65408_49_x00_" viewBox="-51.5 -50.5 103 101">
		<polygon fill="#CD0000" stroke="#1B0000" stroke-width="3" points="50,-49 -50,-49 -50,49 50,49 		"/>
	</symbol>
	<symbol  id="_x12_360519136_65408_5_x00_" viewBox="-51.5 -50.5 103 101">
		<polygon fill="#FA0000" stroke="#200000" stroke-width="3" points="50,-49 -50,-49 -50,49 50,49 		"/>
	</symbol>
	<symbol  id="_x12_360519136_65408_52_x00_" viewBox="-51.5 -50.5 103 101">
		<polygon fill="#C90000" stroke="#1A0000" stroke-width="3" points="50,-49 -50,-49 -50,49 50,49 		"/>
	</symbol>
	<symbol  id="_x12_360519136_65408_53_x00_" viewBox="-51.5 -50.5 103 101">
		<polygon fill="#C90000" stroke="#1A0000" stroke-width="3" points="50,-49 -50,-49 -50,49 50,49 		"/>
	</symbol>
	<symbol  id="_x12_360519136_65408_54_x00_" viewBox="-51.5 -50.5 103 101">
		<polygon fill="#C70000" stroke="#1A0000" stroke-width="3" points="50,-49 -50,-49 -50,49 50,49 		"/>
	</symbol>
	<symbol  id="_x12_360519136_65408_57_x00_" viewBox="-51.5 -50.5 103 101">
		<polygon fill="#C40000" stroke="#190000" stroke-width="3" points="50,-49 -50,-49 -50,49 50,49 		"/>
	</symbol>
	<symbol  id="_x12_360519136_65408_60_x00_" viewBox="-51.5 -50.5 103 101">
		<polygon fill="#C10000" stroke="#190000" stroke-width="3" points="50,-49 -50,-49 -50,49 50,49 		"/>
	</symbol>
	<symbol  id="_x12_360519136_65408_61_x00_" viewBox="-51.5 -50.5 103 101">
		<polygon fill="#C10000" stroke="#190000" stroke-width="3" points="50,-49 -50,-49 -50,49 50,49 		"/>
	</symbol>
	<symbol  id="_x12_360519136_65408_62_x00_" viewBox="-51.5 -50.5 103 101">
		<polygon fill="#BF0000" stroke="#190000" stroke-width="3" points="50,-49 -50,-49 -50,49 50,49 		"/>
	</symbol>
	<symbol  id="_x12_360519136_65408_63_x00_" viewBox="-51.5 -50.5 103 101">
		<polygon fill="#BE0000" stroke="#190000" stroke-width="3" points="50,-49 -50,-49 -50,49 50,49 		"/>
	</symbol>
	<symbol  id="_x12_360519136_65408_64_x00_" viewBox="-51.5 -50.5 103 101">
		<polygon fill="#BE0000" stroke="#190000" stroke-width="3" points="50,-49 -50,-49 -50,49 50,49 		"/>
	</symbol>
	<symbol  id="_x12_360519136_65408_65_x00_" viewBox="-51.5 -50.5 103 101">
		<polygon fill="#BC0000" stroke="#180000" stroke-width="3" points="50,-49 -50,-49 -50,49 50,49 		"/>
	</symbol>
	<symbol  id="_x12_360519136_65408_66_x00_" viewBox="-51.5 -50.5 103 101">
		<polygon fill="#BB0000" stroke="#180000" stroke-width="3" points="50,-49 -50,-49 -50,49 50,49 		"/>
	</symbol>
	<symbol  id="_x12_360519136_65408_67_x00_" viewBox="-51.5 -50.5 103 101">
		<polygon fill="#BB0000" stroke="#180000" stroke-width="3" points="50,-49 -50,-49 -50,49 50,49 		"/>
	</symbol>
	<symbol  id="_x12_360519136_65408_69_x00_" viewBox="-51.5 -50.5 103 101">
		<polygon fill="#B80000" stroke="#180000" stroke-width="3" points="50,-49 -50,-49 -50,49 50,49 		"/>
	</symbol>
	<symbol  id="_x12_360519136_65408_70_x00_" viewBox="-51.5 -50.5 103 101">
		<polygon fill="#B80000" stroke="#180000" stroke-width="3" points="50,-49 -50,-49 -50,49 50,49 		"/>
	</symbol>
	<symbol  id="_x12_360519136_65408_71_x00_" viewBox="-51.5 -50.5 103 101">
		<polygon fill="#B60000" stroke="#180000" stroke-width="3" points="50,-49 -50,-49 -50,49 50,49 		"/>
	</symbol>
	<symbol  id="_x12_360519136_65408_72_x00_" viewBox="-51.5 -50.5 103 101">
		<polygon fill="#B50000" stroke="#170000" stroke-width="3" points="50,-49 -50,-49 -50,49 50,49 		"/>
	</symbol>
	<symbol  id="_x12_360519136_65408_73_x00_" viewBox="-51.5 -50.5 103 101">
		<polygon fill="#B40000" stroke="#170000" stroke-width="3" points="50,-49 -50,-49 -50,49 50,49 		"/>
	</symbol>
	<symbol  id="_x12_360519136_65408_74_x00_" viewBox="-51.5 -50.5 103 101">
		<polygon fill="#B30000" stroke="#170000" stroke-width="3" points="50,-49 -50,-49 -50,49 50,49 		"/>
	</symbol>
	<symbol  id="_x12_360519136_65408_75_x00_" viewBox="-51.5 -50.5 103 101">
		<polygon fill="#B20000" stroke="#170000" stroke-width="3" points="50,-49 -50,-49 -50,49 50,49 		"/>
	</symbol>
	<symbol  id="_x12_360519136_65408_76_x00_" viewBox="-51.5 -50.5 103 101">
		<polygon fill="#B10000" stroke="#170000" stroke-width="3" points="50,-49 -50,-49 -50,49 50,49 		"/>
	</symbol>
	<symbol  id="_x12_360519136_65408_77_x00_" viewBox="-51.5 -50.5 103 101">
		<polygon fill="#B00000" stroke="#170000" stroke-width="3" points="50,-49 -50,-49 -50,49 50,49 		"/>
	</symbol>
	<symbol  id="_x12_360519136_65408_78_x00_" viewBox="-51.5 -50.5 103 101">
		<polygon fill="#AF0000" stroke="#170000" stroke-width="3" points="50,-49 -50,-49 -50,49 50,49 		"/>
	</symbol>
	<symbol  id="_x12_360519136_65408_81_x00_" viewBox="-51.5 -50.5 103 101">
		<polygon fill="#AB0000" stroke="#160000" stroke-width="3" points="50,-49 -50,-49 -50,49 50,49 		"/>
	</symbol>
	<symbol  id="_x12_360519136_65408_83_x00_" viewBox="-51.5 -50.5 103 101">
		<polygon fill="#AA0000" stroke="#160000" stroke-width="3" points="50,-49 -50,-49 -50,49 50,49 		"/>
	</symbol>
	<symbol  id="_x12_360519136_65408_84_x00_" viewBox="-51.5 -50.5 103 101">
		<polygon fill="#A80000" stroke="#160000" stroke-width="3" points="50,-49 -50,-49 -50,49 50,49 		"/>
	</symbol>
	<symbol  id="_x12_360519136_65408_85_x00_" viewBox="-51.5 -50.5 103 101">
		<polygon fill="#A80000" stroke="#160000" stroke-width="3" points="50,-49 -50,-49 -50,49 50,49 		"/>
	</symbol>
	<symbol  id="_x12_360519136_65408_87_x00_" viewBox="-51.5 -50.5 103 101">
		<polygon fill="#A50000" stroke="#150000" stroke-width="3" points="50,-49 -50,-49 -50,49 50,49 		"/>
	</symbol>
	<symbol  id="_x12_360519136_65408_88_x00_" viewBox="-51.5 -50.5 103 101">
		<polygon fill="#A40000" stroke="#150000" stroke-width="3" points="50,-49 -50,-49 -50,49 50,49 		"/>
	</symbol>
	<symbol  id="_x12_360519136_65408_9_x00_" viewBox="-51.5 -50.5 103 101">
		<polygon fill="#F60000" stroke="#200000" stroke-width="3" points="50,-49 -50,-49 -50,49 50,49 		"/>
	</symbol>
	<symbol  id="_x12_360519136_65408_90_x00_" viewBox="-51.5 -50.5 103 101">
		<polygon fill="#A30000" stroke="#150000" stroke-width="3" points="50,-49 -50,-49 -50,49 50,49 		"/>
	</symbol>
	<symbol  id="_x12_360519136_65408_91_x00_" viewBox="-51.5 -50.5 103 101">
		<polygon fill="#A20000" stroke="#150000" stroke-width="3" points="50,-49 -50,-49 -50,49 50,49 		"/>
	</symbol>
	<symbol  id="_x12_360519136_65408_92_x00_" viewBox="-51.5 -50.5 103 101">
		<polygon fill="#A00000" stroke="#150000" stroke-width="3" points="50,-49 -50,-49 -50,49 50,49 		"/>
	</symbol>
	<symbol  id="_x12_360519136_65408_93_x00_" viewBox="-51.5 -50.5 103 101">
		<polygon fill="#9F0000" stroke="#150000" stroke-width="3" points="50,-49 -50,-49 -50,49 50,49 		"/>
	</symbol>
	<symbol  id="_x12_360519136_65408_94_x00_" viewBox="-51.5 -50.5 103 101">
		<polygon fill="#9F0000" stroke="#150000" stroke-width="3" points="50,-49 -50,-49 -50,49 50,49 		"/>
	</symbol>
	<symbol  id="_x12_360519136_65408_95_x00_" viewBox="-51.5 -50.5 103 101">
		<polygon fill="#9D0000" stroke="#140000" stroke-width="3" points="50,-49 -50,-49 -50,49 50,49 		"/>
	</symbol>
	<symbol  id="_x12_360519136_65408_96_x00_" viewBox="-51.5 -50.5 103 101">
		<polygon fill="#9C0000" stroke="#140000" stroke-width="3" points="50,-49 -50,-49 -50,49 50,49 		"/>
	</symbol>
	<symbol  id="_x12_360519136_65408_97_x00_" viewBox="-51.5 -50.5 103 101">
		<polygon fill="#9B0000" stroke="#140000" stroke-width="3" points="50,-49 -50,-49 -50,49 50,49 		"/>
	</symbol>
	<symbol  id="_x12_360519136_65408_98_x00_" viewBox="-51.5 -50.5 103 101">
		<polygon fill="#9B0000" stroke="#140000" stroke-width="3" points="50,-49 -50,-49 -50,49 50,49 		"/>
	</symbol>
	<symbol  id="_x12_360519136_65408_99_x00_" viewBox="-51.5 -50.5 103 101">
		<polygon fill="#9A0000" stroke="#140000" stroke-width="3" points="50,-49 -50,-49 -50,49 50,49 		"/>
	</symbol>
	<symbol  id="square" viewBox="-51.5 -50.5 103 101">
		<polygon fill="#FF0000" stroke="#210000" stroke-width="3" points="50,-49 -50,-49 -50,49 50,49 		"/>
	</symbol>
</defs>
<rect x="166.646" y="1074.09" display="none" fill="#0071BC" width="720" height="320"/>
<rect x="166.646" y="114.09" display="none" fill="#0071BC" width="76" height="960"/>
<rect x="814.494" y="114.845" display="none" fill="#0071BC" width="72.152" height="959.245"/>
<rect x="166.646" y="114.09" display="none" fill="#0071BC" width="720" height="83.965"/>
<path display="none" fill="#FFC01F" stroke="#000000" stroke-width="6" d="M227.281,187.25c-1.76-3.681-1.933-4.292-6.191-4.979
	c-1.577-0.246-2.974-1.034-3.653-2.426c-1.409-2.883,2.046-3.472,2.477-3.518c9.465-1.031,18.934-2.015,28.406-2.95
	c9.205,21.186,18.411,42.371,27.616,63.557c1.605,3.697,1.775,4.305,5.61,5.076c1.42,0.278,2.666,1.095,3.26,2.496
	c1.229,2.899-1.821,3.405-2.201,3.443c-8.967,0.879-17.931,1.807-26.891,2.783c-0.38,0.041-3.608,0.186-5.017-2.696
	c-0.68-1.392-0.254-2.382,0.801-2.916c2.831-1.461,2.456-2.046,0.695-5.729C243.889,222.011,235.585,204.63,227.281,187.25z
	 M253.164,172.903c0.18-0.018,0.359-0.035,0.539-0.052c6.99-0.678,14.262-1.56,21.845,0.774c8.492,2.668,14.155,7.895,17.11,15.52
	c4.497,11.541-1.39,17.217-10.724,20.572c0.027,0.067,0.054,0.134,0.081,0.201c9.553,0.467,19.128,2.348,23.28,12.983
	c1.104,2.947,2.207,5.894,3.31,8.841c0.338,0.905,0.8,2.938,2.06,2.831c1.549-0.131,0.762-3.071,3.102-3.267
	c1.268-0.106,3.37,1.274,3.875,2.683c1.043,2.917-0.784,6.9-2.246,8.786c-2.205,3.088-5.303,4.185-9.384,4.546
	c-4.08,0.362-8.207-0.404-12.439-3.232c-4.821-3.294-7.156-7.648-9.11-12.354c-0.944-2.269-1.888-4.538-2.831-6.807
	c-1.917-4.604-4.334-10.207-10.635-10.223c-0.839-1.967-1.678-3.934-2.517-5.9c5.269-1.029,4.615-4.396,2.576-9.303
	c-1.679-4.038-3.358-8.075-5.038-12.113c-2.082-5.004-4.236-7.302-10.337-8.586C254.842,176.837,254.003,174.87,253.164,172.903z"/>
<path display="none" fill="#FFC01F" stroke="#000000" stroke-width="6" d="M300.986,168.673c9.485-0.758,18.972-1.468,28.462-2.129
	c7.664,25.183,15.329,50.365,22.993,75.548c-8.38,0.584-16.758,1.211-25.134,1.88c-0.38,0.03-3.59,0.082-4.631-2.835
	c-0.502-1.409,0.04-2.385,1.148-2.888c2.977-1.376,2.678-1.972,1.387-5.698c-6.09-17.587-12.181-35.175-18.271-52.763
	c-1.292-3.725-1.389-4.34-5.514-5.147c-1.53-0.291-2.814-1.118-3.317-2.527C297.067,169.196,300.555,168.708,300.986,168.673z
	 M334.3,166.21c8.017-0.545,16.035-1.057,24.055-1.533c1.774,6.854,3.549,13.708,5.323,20.562c0.131,0.507,0.523,2.437-2.597,2.625
	c-1.769,0.108-2.559-0.873-3.49-2.359c-4.91-8.03-11.717-12.657-21.553-13.434C335.459,170.117,334.88,168.164,334.3,166.21z
	 M344.314,199.961c3.958-1.403,4.78-5.472,4.621-9.377c0.028-1.753,0.195-3.413,2.386-3.553c3.235-0.207,3.712,3.471,3.936,4.28
	c2.003,7.286,4.006,14.572,6.01,21.858c0.224,0.81,1.717,4.42-1.354,4.616c-2.081,0.133-3.134-1.445-4.123-3.132
	c-1.989-3.784-5.033-7.604-9.617-8.427C345.553,204.138,344.934,202.05,344.314,199.961z M354.987,235.936
	c7.476-1.54,11.914-7.474,12.428-15.739c0.284-1.561,0.449-3.217,2.235-3.325c3.177-0.191,3.66,2.868,3.765,3.272
	c1.74,6.753,3.48,13.506,5.22,20.259c-7.305,0.432-14.608,0.896-21.909,1.393C356.146,239.843,355.566,237.889,354.987,235.936z"/>
<path display="none" fill="#FFC01F" stroke="#000000" stroke-width="6" d="M421.52,238.235c-4.576,0.192-9.152,0.396-13.728,0.613
	c-10.589-21.481-21.872-42.907-33.848-64.27c-1.553-2.893-1.304-3.217-4.484-4.272c-1.431-0.537-2.513-1.399-2.864-2.819
	c-0.831-3.346,3.73-3.5,6.212-3.633c7.878-0.428,15.757-0.823,23.637-1.185c2.48-0.116,7.554-0.953,8.237,2.708
	c0.743,3.963-4.293,2.443-3.48,6.611c0.238,1.219,0.55,1.718,1.104,2.923c7.23,14.507,14.159,29.038,20.785,43.59
	C422.512,225.081,421.988,231.658,421.52,238.235z M419.123,200.328c0.689-7.573,1.452-15.147,2.288-22.722
	c0.259-1.648,0.371-2.267,0.087-3.997c-0.465-2.849-2.025-4.532-4.961-5.339c-1.921-0.539-3.527-1.089-3.885-3.123
	c-0.556-3.153,3.335-3.309,5.603-3.395c3.959-0.151,7.918-0.294,11.878-0.428c2.375-0.083,6.318-0.617,6.764,2.643
	c0.307,2.241-1.151,2.593-2.854,3.468c-2.604,1.314-3.49,1.856-4.824,4.359c-1.058,2.186-1.541,4.558-1.807,6.921
	c-1.301,10.657-2.455,21.314-3.462,31.97c-0.066,0.002-0.133,0.005-0.2,0.008C422.224,207.237,420.682,203.782,419.123,200.328z"/>
<path display="none" fill="#FFC01F" stroke="#000000" stroke-width="6" d="M443.087,160.914c9.504-0.279,19.009-0.51,28.515-0.694
	c2.124,25.429,4.248,50.858,6.372,76.287c-8.394,0.162-16.788,0.366-25.181,0.613c-0.381,0.011-3.553-0.099-3.95-3.051
	c-0.191-1.427,0.552-2.37,1.752-2.815c3.228-1.221,3.062-1.827,2.592-5.598c-2.21-17.796-4.42-35.593-6.631-53.39
	c-0.469-3.77-0.433-4.386-4.322-5.396c-1.444-0.365-2.531-1.252-2.722-2.679C439.116,161.238,442.655,160.925,443.087,160.914z
	 M476.463,160.131c8.03-0.141,16.06-0.248,24.09-0.321c0.27,6.906,0.54,13.812,0.811,20.717c0.02,0.511-0.01,2.45-3.134,2.48
	c-1.771,0.019-2.34-0.996-2.938-2.521c-3.113-8.232-8.838-13.174-18.378-14.439C476.763,164.075,476.613,162.103,476.463,160.131z
	 M479.055,194.2c4.209-1.197,5.9-5.203,6.588-9.094c0.407-1.742,0.931-3.385,3.125-3.415c3.239-0.043,2.916,3.638,2.961,4.454
	c0.403,7.347,0.806,14.693,1.209,22.04c0.046,0.816,0.74,4.482-2.335,4.523c-2.084,0.029-2.783-1.594-3.395-3.321
	c-1.146-3.863-3.327-7.814-7.672-8.863C479.375,198.416,479.215,196.308,479.055,194.2z M481.816,230.512
	c7.71-1.157,13.379-6.837,15.675-15.031c0.618-1.538,1.139-3.177,2.929-3.195c3.182-0.031,2.996,3.035,3.012,3.443
	c0.258,6.804,0.517,13.607,0.775,20.411c-7.314,0.064-14.628,0.16-21.941,0.289C482.117,234.457,481.966,232.484,481.816,230.512z"
	/>
<path display="none" fill="#FFC01F" stroke="#000000" stroke-width="6" d="M518.81,178.894c0.07,0,0.14,0,0.21-0.001
	c1.996,3.397,3.959,6.797,5.892,10.198c0.02,10.275,0.04,20.55,0.059,30.826c1.587,12.755,7.732,8.784,7.695,13.175
	c-0.039,3.164-3.943,2.952-4.994,2.952c-3.625-0.002-7.25,0.003-10.875,0.017c-1.05,0.002-4.953,0.227-5.034-2.937
	c-0.095-4.39,6.103-0.438,7.52-13.198C519.124,206.249,518.967,192.571,518.81,178.894z M571.016,211.73
	c-0.615,8.229-1.23,16.457-1.846,24.685c-4.737-0.082-9.476-0.15-14.214-0.205c-10.564-21.597-22.43-43.128-35.594-64.565
	c-1.73-2.853-2.285-4.384-5.834-5.492c-1.83-0.604-3.233-1.003-3.289-3.25c-0.078-3.063,3.165-3.08,5.432-3.189
	c9.255-0.034,18.51-0.023,27.765,0.034C553.459,177.027,562.652,194.358,571.016,211.73z M567.405,178.48
	c0.968-14.592-8.062-10.834-7.813-15.523c0.145-2.857,3.722-3.018,4.802-3.002c4.897,0.066,9.795,0.145,14.692,0.237
	c1.081,0.02,4.63,0.295,4.374,3.151c-0.407,4.687-8.894,0.646-9.967,15.236c-0.618,8.262-1.235,16.525-1.853,24.787
	c-0.067-0.001-0.135-0.002-0.202-0.003c-1.627-3.466-3.286-6.932-4.978-10.395C566.776,188.138,567.09,183.309,567.405,178.48z"/>
<path display="none" fill="#FFC01F" stroke="#000000" stroke-width="6" d="M609.162,223.614c-0.518,3.667-0.338,7.967,3.29,9.523
	c-0.293,1.969-0.587,3.937-0.88,5.905c-16.273-1.074-27.355-18.668-25.418-40.496c1.944-21.92,18.125-38.959,37.221-38.712
	c-0.294,1.968-0.587,3.937-0.88,5.905c-4.506,1.279-5.938,5.429-6.455,9.095C613.747,191.094,611.454,207.354,609.162,223.614z
	 M616.775,233.29c4.435-1.169,5.207-4.618,5.489-6.349c1.003-6.105,2.005-12.211,3.008-18.316c0.366-2.238,0.354-2.753-3.564-3.613
	c-1.547-0.466-2.416-1.417-2.152-3.147c0.418-2.749,3.997-2.723,4.506-2.704c8.106,0.298,16.212,0.634,24.315,1.006
	c0.508,0.023,3.625-0.139,2.934,3.213c-0.354,1.727-1.409,2.396-2.438,2.962c-2.381,1.222-2.317,2.457-2.421,2.964
	c-1.337,6.706-2.675,13.412-4.013,20.118c-8.07,6.088-17.531,9.889-26.587,9.768C616.16,237.225,616.467,235.257,616.775,233.29z
	 M628.245,160.006c11.232,1.331,16.523,4.438,17.702,4.485c3.227,0.139,3.615-3.637,7.08-3.482c3.249,0.146,2.483,2.881,2.382,3.389
	c-1.506,7.552-3.013,15.105-4.52,22.658c-0.101,0.508-0.732,3.657-3.932,3.513c-2.684-0.12-3.042-2.081-3.161-4.239
	c-0.749-13.151-7.83-19.7-16.476-20.42C627.628,163.941,627.937,161.974,628.245,160.006z"/>
<path display="none" fill="#FFC01F" stroke="#000000" stroke-width="6" d="M663.574,241.374c-5.871-0.325-9.117-5.619-7.827-11.508
	c1.29-5.887,6.959-10.732,13.098-10.393s9.365,5.677,7.825,11.551C675.129,236.898,669.446,241.697,663.574,241.374z"/>
<path display="none" fill="#FFC01F" stroke="#000000" stroke-width="6" d="M709.807,165.671c9.491,0.618,18.981,1.284,28.468,1.999
	c-8.27,25.139-16.539,50.277-24.809,75.416c-8.377-0.631-16.757-1.219-25.14-1.765c-0.381-0.025-3.465-0.429-2.653-3.363
	c0.393-1.417,1.511-2.272,2.876-2.596c3.683-0.894,3.767-1.505,4.84-5.247c5.071-17.662,10.144-35.323,15.215-52.984
	c1.073-3.741,1.359-4.342-2.065-5.697c-1.275-0.494-1.986-1.466-1.594-2.883C705.756,165.616,709.375,165.642,709.807,165.671z
	 M743.126,168.039c8.013,0.617,16.023,1.269,24.032,1.954c-2.55,6.798-5.1,13.596-7.649,20.394c-0.188,0.502-1.01,2.401-4.126,2.137
	c-1.767-0.149-1.917-1.197-1.888-2.749c0.269-8.367-3.401-13.753-12.336-15.891C741.815,171.936,742.471,169.987,743.126,168.039z
	 M731.796,201.695c4.659-0.778,7.97-4.547,10.239-8.299c1.114-1.67,2.304-3.231,4.492-3.055c3.232,0.263,1.409,3.843,1.122,4.647
	c-2.598,7.243-5.195,14.486-7.794,21.729c-0.287,0.805-1.095,4.465-4.163,4.216c-2.079-0.168-2.109-1.826-2.012-3.576
	c0.439-3.896-0.11-7.978-3.988-9.414C730.394,205.86,731.095,203.778,731.796,201.695z M719.719,237.568
	c8.11-0.41,16.057-5.446,21.68-13.266c1.24-1.45,2.427-3.009,4.211-2.858c3.174,0.27,1.739,3.258,1.589,3.661
	c-2.52,6.696-5.04,13.393-7.56,20.09c-7.294-0.626-14.59-1.221-21.888-1.783C718.407,241.464,719.063,239.516,719.719,237.568z"/>
<path display="none" fill="#FFC01F" stroke="#000000" stroke-width="6" d="M802.972,177.77c-4.635,0.896-9.336,3.359-11.067,7.461
	c-2.09,4.907-0.458,8.164,9.805,14.002c15.247,8.673,14.561,18.498,10.118,27.63c-7.639,15.395-24.752,24.071-38.806,22.988
	c0.847-1.932,1.694-3.863,2.542-5.794c5.251-1.041,10.189-2.827,12.887-8.292c3.072-6.263-3.049-9.605-6.911-12.171
	c-10.172-6.531-19.728-13.292-13.629-29.05c5.865-15.254,21.42-23.65,37.589-22.57C804.657,173.906,803.814,175.838,802.972,177.77z
	 M756.608,223.438c0.823-2.106,2.318-4.881,5.114-4.629c1.995,0.18,2.745,1.913,2.354,3.644c-1.814,8.149-0.436,18.559,7.178,21.179
	c-0.833,1.933-1.666,3.865-2.498,5.798c-8.151-1.001-8.519-4.667-11.961-4.989c-3.058-0.282-4.097,3.053-6.469,2.838
	c-2.938-0.265-1.49-3.976-1.294-4.478C751.558,236.346,754.083,229.892,756.608,223.438z M823.706,196.435
	c-1.106,2.288-2.723,4.727-5.718,4.403c-2.479-0.268-2.518-2.258-1.894-4.283c2.353-7.487-0.695-15.764-8.312-18.304
	c0.856-1.93,1.714-3.86,2.571-5.791c6.771,0.785,12.22,5.334,13.387,5.459c2.784,0.296,4.265-3.311,7.069-3.008
	c3.344,0.363,1.492,3.722,1.108,4.517C829.18,185.098,826.443,190.767,823.706,196.435z"/>
<g>
	
		<use xlink:href="#square"  width="103" height="101" x="-51.5" y="-50.5" transform="matrix(0.9602 -0.425 -0.4318 -0.945 270.7153 209.9795)" overflow="visible"/>
	
		<use xlink:href="#_x12_360519136_65408_0_x00_"  width="103" height="101" x="-51.5" y="-50.5" transform="matrix(0.8722 -0.3678 -0.3737 -0.8584 251.2026 183.4736)" overflow="visible"/>
	
		<use xlink:href="#_x12_360519136_65408_60_x00_"  width="103" height="101" x="-51.5" y="-50.5" transform="matrix(0.7462 -0.5931 -0.6027 -0.7344 214.7217 226.8462)" overflow="visible"/>
	
		<use xlink:href="#_x12_360519136_65408_76_x00_"  width="103" height="101" x="-51.5" y="-50.5" transform="matrix(0.6392 -0.6902 -0.7013 -0.6291 169.8223 263.2778)" overflow="visible"/>
	
		<use xlink:href="#_x12_360519136_65408_65_x00_"  width="103" height="101" x="-51.5" y="-50.5" transform="matrix(0.8105 -0.488 -0.4958 -0.7976 154.3975 310.8062)" overflow="visible"/>
	
		<use xlink:href="#_x12_360519136_65408_61_x00_"  width="103" height="101" x="-51.5" y="-50.5" transform="matrix(1.1442 1.5834 1.6088 -1.1261 193.3247 432.0239)" overflow="visible"/>
	
		<use xlink:href="#_x12_360519136_65408_65_x00_"  width="103" height="101" x="-51.5" y="-50.5" transform="matrix(0.7689 1.0647 1.0818 -0.7568 206.4302 486.6616)" overflow="visible"/>
	
		<use xlink:href="#_x12_360519136_65408_71_x00_"  width="103" height="101" x="-51.5" y="-50.5" transform="matrix(1.1705 0.7938 0.8066 -1.152 245.9609 465.7061)" overflow="visible"/>
	
		<use xlink:href="#_x12_360519136_65408_36_x00_"  width="103" height="101" x="-51.5" y="-50.5" transform="matrix(0.9185 0.8666 0.8805 -0.904 162.4497 476.0469)" overflow="visible"/>
	
		<use xlink:href="#_x12_360519136_65408_78_x00_"  width="103" height="101" x="-51.5" y="-50.5" transform="matrix(0.3183 0.9952 1.0112 -0.3133 248.3018 553.0654)" overflow="visible"/>
	
		<use xlink:href="#_x12_360519136_65408_91_x00_"  width="103" height="101" x="-51.5" y="-50.5" transform="matrix(1.0392 0.2145 0.2179 -1.0228 211.3184 612.79)" overflow="visible"/>
	
		<use xlink:href="#_x12_360519136_65408_88_x00_"  width="103" height="101" x="-51.5" y="-50.5" transform="matrix(0.9612 0.0021 0.0021 -0.946 153.3979 630.8345)" overflow="visible"/>
	
		<use xlink:href="#_x12_360519136_65408_98_x00_"  width="103" height="101" x="-51.5" y="-50.5" transform="matrix(0.9641 -0.2259 -0.2295 -0.9488 177.3623 661.5278)" overflow="visible"/>
	
		<use xlink:href="#_x12_360519136_65408_94_x00_"  width="103" height="101" x="-51.5" y="-50.5" transform="matrix(0.699 -0.8608 -0.8747 -0.6879 243.688 698.127)" overflow="visible"/>
	
		<use xlink:href="#_x12_360519136_65408_95_x00_"  width="103" height="101" x="-51.5" y="-50.5" transform="matrix(0.1934 -1.3484 -1.3701 -0.1903 244.3032 746.7993)" overflow="visible"/>
	
		<use xlink:href="#_x12_360519136_65408_85_x00_"  width="103" height="101" x="-51.5" y="-50.5" transform="matrix(0.4085 -1.5367 -1.5614 -0.402 211.9658 796.6367)" overflow="visible"/>
	
		<use xlink:href="#_x12_360519136_65408_37_x00_"  width="103" height="101" x="-51.5" y="-50.5" transform="matrix(1.2789 -0.0017 -0.0018 -1.2586 273.1611 831.2744)" overflow="visible"/>
	
		<use xlink:href="#_x12_360519136_65408_35_x00_"  width="103" height="101" x="-51.5" y="-50.5" transform="matrix(1.6555 -0.1904 -0.1935 -1.6293 234.1689 848.0918)" overflow="visible"/>
	
		<use xlink:href="#square"  width="103" height="101" x="-51.5" y="-50.5" transform="matrix(1.1158 -0.832 -0.8454 -1.0982 174.8892 851.9502)" overflow="visible"/>
	
		<use xlink:href="#square"  width="103" height="101" x="-51.5" y="-50.5" transform="matrix(0.8883 -0.3668 -0.3727 -0.8742 92.6157 936.9854)" overflow="visible"/>
	
		<use xlink:href="#square"  width="103" height="101" x="-51.5" y="-50.5" transform="matrix(0.6498 -0.6806 -0.6915 -0.6395 68.5103 981.7109)" overflow="visible"/>
	
		<use xlink:href="#_x12_360519136_65408_2_x00_"  width="103" height="101" x="-51.5" y="-50.5" transform="matrix(0.8199 -0.6257 -0.6358 -0.8069 103.3057 1015.2158)" overflow="visible"/>
	
		<use xlink:href="#_x12_360519136_65408_42_x00_"  width="103" height="101" x="-51.5" y="-50.5" transform="matrix(1.0611 -0.7941 -0.8068 -1.0443 170.7568 1013.5137)" overflow="visible"/>
	
		<use xlink:href="#_x12_360519136_65408_49_x00_"  width="103" height="101" x="-51.5" y="-50.5" transform="matrix(1.0139 -1.1146 -1.1325 -0.9979 201.6123 1050.9463)" overflow="visible"/>
	
		<use xlink:href="#_x12_360519136_65408_44_x00_"  width="103" height="101" x="-51.5" y="-50.5" transform="matrix(1.1944 -0.5119 -0.5201 -1.1755 178.0474 1102.5254)" overflow="visible"/>
	
		<use xlink:href="#_x12_360519136_65408_52_x00_"  width="103" height="101" x="-51.5" y="-50.5" transform="matrix(0.9876 -0.0976 -0.0992 -0.972 250.9194 1099.4668)" overflow="visible"/>
	
		<use xlink:href="#_x12_360519136_65408_92_x00_"  width="103" height="101" x="-51.5" y="-50.5" transform="matrix(0.9286 -0.351 -0.3566 -0.9139 254.1001 1063.2969)" overflow="visible"/>
	
		<use xlink:href="#_x12_360519136_65408_87_x00_"  width="103" height="101" x="-51.5" y="-50.5" transform="matrix(0.9466 -0.0905 -0.0919 -0.9317 219.6885 1100.3203)" overflow="visible"/>
	
		<use xlink:href="#square"  width="103" height="101" x="-51.5" y="-50.5" transform="matrix(0.9487 0.0186 0.0189 -0.9337 130.1226 1267.293)" overflow="visible"/>
	
		<use xlink:href="#square"  width="103" height="101" x="-51.5" y="-50.5" transform="matrix(0.9489 0 0 -0.9339 120.4932 1333.8467)" overflow="visible"/>
	
		<use xlink:href="#square"  width="103" height="101" x="-51.5" y="-50.5" transform="matrix(0.9489 0 0 -0.9339 151.6431 1359.5186)" overflow="visible"/>
	
		<use xlink:href="#square"  width="103" height="101" x="-51.5" y="-50.5" transform="matrix(0.9489 0 0 -0.9339 147.8379 1401.8438)" overflow="visible"/>
	
		<use xlink:href="#square"  width="103" height="101" x="-51.5" y="-50.5" transform="matrix(0.9489 0 0 -0.9339 189.4404 1421.1699)" overflow="visible"/>
	
		<use xlink:href="#square"  width="103" height="101" x="-51.5" y="-50.5" transform="matrix(0.9489 0 0 -0.9339 191.4746 1388.5137)" overflow="visible"/>
	
		<use xlink:href="#_x12_360519136_65408_12_x00_"  width="103" height="101" x="-51.5" y="-50.5" transform="matrix(0.8361 0.4417 0.4488 -0.8228 383.9253 1377.0537)" overflow="visible"/>
	
		<use xlink:href="#_x12_360519136_65408_99_x00_"  width="103" height="101" x="-51.5" y="-50.5" transform="matrix(0.7622 0.5562 0.5652 -0.7502 479.562 1336.7695)" overflow="visible"/>
	
		<use xlink:href="#_x12_360519136_65408_83_x00_"  width="103" height="101" x="-51.5" y="-50.5" transform="matrix(0.9395 0.1308 0.1329 -0.9247 489.4756 1385.6357)" overflow="visible"/>
	
		<use xlink:href="#_x12_360519136_65408_98_x00_"  width="103" height="101" x="-51.5" y="-50.5" transform="matrix(0.9432 0.1022 0.1039 -0.9283 510.3809 1359.3242)" overflow="visible"/>
	
		<use xlink:href="#square"  width="103" height="101" x="-51.5" y="-50.5" transform="matrix(0.9489 0 0 -0.9339 523.3872 1428.1934)" overflow="visible"/>
	
		<use xlink:href="#square"  width="103" height="101" x="-51.5" y="-50.5" transform="matrix(0.9489 0 0 -0.9339 557.9839 1470.3457)" overflow="visible"/>
	
		<use xlink:href="#square"  width="103" height="101" x="-51.5" y="-50.5" transform="matrix(0.9489 0 0 -0.9339 585.2651 1446.6563)" overflow="visible"/>
	
		<use xlink:href="#square"  width="103" height="101" x="-51.5" y="-50.5" transform="matrix(0.9489 0 0 -0.9339 637.1021 1469.7959)" overflow="visible"/>
	
		<use xlink:href="#_x12_360519136_65408_9_x00_"  width="103" height="101" x="-51.5" y="-50.5" transform="matrix(0.9576 0.2326 0.2363 -0.9424 647.7036 1433.3896)" overflow="visible"/>
	
		<use xlink:href="#_x12_360519136_65408_20_x00_"  width="103" height="101" x="-51.5" y="-50.5" transform="matrix(0.9131 0.254 0.2581 -0.8987 687.7544 1408.7871)" overflow="visible"/>
	
		<use xlink:href="#_x12_360519136_65408_67_x00_"  width="103" height="101" x="-51.5" y="-50.5" transform="matrix(0.7395 0.5852 0.5946 -0.7278 692.3765 1376.5664)" overflow="visible"/>
	
		<use xlink:href="#_x12_360519136_65408_92_x00_"  width="103" height="101" x="-51.5" y="-50.5" transform="matrix(0.7252 0.8954 0.9098 -0.7137 745.6548 1375.4385)" overflow="visible"/>
	
		<use xlink:href="#_x12_360519136_65408_5_x00_"  width="103" height="101" x="-51.5" y="-50.5" transform="matrix(0.9488 0.0114 0.0116 -0.9338 714.9272 1436.4268)" overflow="visible"/>
	
		<use xlink:href="#_x12_360519136_65408_77_x00_"  width="103" height="101" x="-51.5" y="-50.5" transform="matrix(0.7712 0.7542 0.7663 -0.759 712.6978 1352.3057)" overflow="visible"/>
	
		<use xlink:href="#_x12_360519136_65408_90_x00_"  width="103" height="101" x="-51.5" y="-50.5" transform="matrix(0.5679 0.8467 0.8603 -0.5589 720.9888 1401.8916)" overflow="visible"/>
	
		<use xlink:href="#_x12_360519136_65408_57_x00_"  width="103" height="101" x="-51.5" y="-50.5" transform="matrix(1.12 0.4032 0.4096 -1.1023 755.0923 1415.9844)" overflow="visible"/>
	
		<use xlink:href="#_x12_360519136_65408_21_x00_"  width="103" height="101" x="-51.5" y="-50.5" transform="matrix(1.3272 -0.132 -0.1341 -1.3062 840.3267 1407.8945)" overflow="visible"/>
	
		<use xlink:href="#_x12_360519136_65408_28_x00_"  width="103" height="101" x="-51.5" y="-50.5" transform="matrix(1.4292 -0.0662 -0.0673 -1.4065 871.3032 1374.335)" overflow="visible"/>
	
		<use xlink:href="#_x12_360519136_65408_70_x00_"  width="103" height="101" x="-51.5" y="-50.5" transform="matrix(1.765 -0.0823 -0.0836 -1.7371 844.6206 1326.666)" overflow="visible"/>
	
		<use xlink:href="#_x12_360519136_65408_76_x00_"  width="103" height="101" x="-51.5" y="-50.5" transform="matrix(1.2035 0.0866 0.088 -1.1845 875.8335 1291.8076)" overflow="visible"/>
	
		<use xlink:href="#_x12_360519136_65408_75_x00_"  width="103" height="101" x="-51.5" y="-50.5" transform="matrix(1 0.0753 0.0765 -0.9842 859.0493 1251.8447)" overflow="visible"/>
	
		<use xlink:href="#_x12_360519136_65408_98_x00_"  width="103" height="101" x="-51.5" y="-50.5" transform="matrix(1.123 0.2735 0.2779 -1.1052 838.2202 1228.6943)" overflow="visible"/>
	
		<use xlink:href="#_x12_360519136_65408_90_x00_"  width="103" height="101" x="-51.5" y="-50.5" transform="matrix(1.1214 0.1082 0.1099 -1.1036 873.7671 1224.3799)" overflow="visible"/>
	
		<use xlink:href="#_x12_360519136_65408_60_x00_"  width="103" height="101" x="-51.5" y="-50.5" transform="matrix(1.5276 -0.0893 -0.0908 -1.5034 848.9214 1052.1943)" overflow="visible"/>
	
		<use xlink:href="#_x12_360519136_65408_45_x00_"  width="103" height="101" x="-51.5" y="-50.5" transform="matrix(1.5711 -0.0522 -0.053 -1.5462 795.5688 991.5889)" overflow="visible"/>
	
		<use xlink:href="#_x12_360519136_65408_62_x00_"  width="103" height="101" x="-51.5" y="-50.5" transform="matrix(1.0947 -0.0795 -0.0807 -1.0774 821.5815 969.2539)" overflow="visible"/>
	
		<use xlink:href="#_x12_360519136_65408_24_x00_"  width="103" height="101" x="-51.5" y="-50.5" transform="matrix(1.8362 -0.039 -0.0396 -1.8071 770.4478 955.7266)" overflow="visible"/>
	
		<use xlink:href="#_x12_360519136_65408_54_x00_"  width="103" height="101" x="-51.5" y="-50.5" transform="matrix(1.2108 -0.1596 -0.1621 -1.1916 778.8149 867.5215)" overflow="visible"/>
	
		<use xlink:href="#_x12_360519136_65408_74_x00_"  width="103" height="101" x="-51.5" y="-50.5" transform="matrix(0.9091 -0.2676 -0.272 -0.8947 871.7417 916.2041)" overflow="visible"/>
	
		<use xlink:href="#_x12_360519136_65408_95_x00_"  width="103" height="101" x="-51.5" y="-50.5" transform="matrix(1.0326 -0.4296 -0.4365 -1.0162 849.186 879.4609)" overflow="visible"/>
	
		<use xlink:href="#_x12_360519136_65408_98_x00_"  width="103" height="101" x="-51.5" y="-50.5" transform="matrix(1.2303 0.036 0.0366 -1.2108 860.895 828.6084)" overflow="visible"/>
	
		<use xlink:href="#_x12_360519136_65408_99_x00_"  width="103" height="101" x="-51.5" y="-50.5" transform="matrix(1.0164 0.1214 0.1234 -1.0003 893.7056 824.251)" overflow="visible"/>
	
		<use xlink:href="#_x12_360519136_65408_99_x00_"  width="103" height="101" x="-51.5" y="-50.5" transform="matrix(1.0747 0.3218 0.327 -1.0577 903.5239 864.1602)" overflow="visible"/>
	
		<use xlink:href="#_x12_360519136_65408_33_x00_"  width="103" height="101" x="-51.5" y="-50.5" transform="matrix(1.3457 -0.0715 -0.0726 -1.3244 783.3784 640.9526)" overflow="visible"/>
	
		<use xlink:href="#_x12_360519136_65408_18_x00_"  width="103" height="101" x="-51.5" y="-50.5" transform="matrix(2.0833 -0.2205 -0.2241 -2.0503 781.4351 556.7046)" overflow="visible"/>
	
		<use xlink:href="#_x12_360519136_65408_3_x00_"  width="103" height="101" x="-51.5" y="-50.5" transform="matrix(1.324 -0.2236 -0.2272 -1.3031 747.4448 532.4268)" overflow="visible"/>
	
		<use xlink:href="#_x12_360519136_65408_4_x00_"  width="103" height="101" x="-51.5" y="-50.5" transform="matrix(1.3581 -0.2007 -0.2039 -1.3366 733.647 580.1982)" overflow="visible"/>
	
		<use xlink:href="#_x12_360519136_65408_18_x00_"  width="103" height="101" x="-51.5" y="-50.5" transform="matrix(1.2185 -0.2457 -0.2496 -1.1993 814.8794 705.5928)" overflow="visible"/>
	
		<use xlink:href="#_x12_360519136_65408_64_x00_"  width="103" height="101" x="-51.5" y="-50.5" transform="matrix(0.9807 0.0106 0.0108 -0.9651 903.8354 491.8027)" overflow="visible"/>
	
		<use xlink:href="#_x12_360519136_65408_93_x00_"  width="103" height="101" x="-51.5" y="-50.5" transform="matrix(0.9456 0.0779 0.0792 -0.9306 918.271 441.8853)" overflow="visible"/>
	
		<use xlink:href="#_x12_360519136_65408_99_x00_"  width="103" height="101" x="-51.5" y="-50.5" transform="matrix(1.118 0.2474 0.2514 -1.1003 871.0464 454.1191)" overflow="visible"/>
	
		<use xlink:href="#square"  width="103" height="101" x="-51.5" y="-50.5" transform="matrix(0.9393 -0.1327 -0.1349 -0.9244 905.8052 602.6777)" overflow="visible"/>
	
		<use xlink:href="#square"  width="103" height="101" x="-51.5" y="-50.5" transform="matrix(1.0172 -0.2043 -0.2075 -1.0011 880.6753 680.1021)" overflow="visible"/>
	
		<use xlink:href="#square"  width="103" height="101" x="-51.5" y="-50.5" transform="matrix(1.223 -0.2376 -0.2414 -1.2037 890.1909 727.2798)" overflow="visible"/>
	
		<use xlink:href="#square"  width="103" height="101" x="-51.5" y="-50.5" transform="matrix(1.0629 -0.3125 -0.3176 -1.0461 898.2397 647.5215)" overflow="visible"/>
	
		<use xlink:href="#_x12_360519136_65408_62_x00_"  width="103" height="101" x="-51.5" y="-50.5" transform="matrix(1.1604 -0.0598 -0.0607 -1.142 864.3647 562.8403)" overflow="visible"/>
	
		<use xlink:href="#_x12_360519136_65408_98_x00_"  width="103" height="101" x="-51.5" y="-50.5" transform="matrix(1.2376 0.4783 0.486 -1.218 849.1255 402.9355)" overflow="visible"/>
	
		<use xlink:href="#_x12_360519136_65408_97_x00_"  width="103" height="101" x="-51.5" y="-50.5" transform="matrix(0.9181 0.237 0.2408 -0.9035 899.1519 373.1572)" overflow="visible"/>
	
		<use xlink:href="#_x12_360519136_65408_73_x00_"  width="103" height="101" x="-51.5" y="-50.5" transform="matrix(1.1641 0.0294 0.0299 -1.1457 856.855 337.8872)" overflow="visible"/>
	
		<use xlink:href="#_x12_360519136_65408_65_x00_"  width="103" height="101" x="-51.5" y="-50.5" transform="matrix(0.8912 -0.3206 -0.3258 -0.8771 881.9233 276.3184)" overflow="visible"/>
	
		<use xlink:href="#_x12_360519136_65408_71_x00_"  width="103" height="101" x="-51.5" y="-50.5" transform="matrix(0.795 -0.5213 -0.5297 -0.7824 849.5308 265.5513)" overflow="visible"/>
	
		<use xlink:href="#_x12_360519136_65408_34_x00_"  width="103" height="101" x="-51.5" y="-50.5" transform="matrix(0.9226 -0.5736 -0.5829 -0.908 821.061 287.6782)" overflow="visible"/>
	
		<use xlink:href="#_x12_360519136_65408_57_x00_"  width="103" height="101" x="-51.5" y="-50.5" transform="matrix(0.4999 -0.7938 -0.8065 -0.492 771.02 215.751)" overflow="visible"/>
	
		<use xlink:href="#_x12_360519136_65408_81_x00_"  width="103" height="101" x="-51.5" y="-50.5" transform="matrix(0.8778 -0.3546 -0.3603 -0.8639 756.7456 141.0708)" overflow="visible"/>
	
		<use xlink:href="#_x12_360519136_65408_72_x00_"  width="103" height="101" x="-51.5" y="-50.5" transform="matrix(0.5133 -0.7854 -0.7981 -0.5052 735.1675 173.7051)" overflow="visible"/>
	
		<use xlink:href="#_x12_360519136_65408_69_x00_"  width="103" height="101" x="-51.5" y="-50.5" transform="matrix(0.3842 -0.8564 -0.8701 -0.3781 678.144 162.0493)" overflow="visible"/>
	
		<use xlink:href="#_x12_360519136_65408_48_x00_"  width="103" height="101" x="-51.5" y="-50.5" transform="matrix(0.2318 -1.0882 -1.1057 -0.2281 644.7202 191.1138)" overflow="visible"/>
	
		<use xlink:href="#_x12_360519136_65408_22_x00_"  width="103" height="101" x="-51.5" y="-50.5" transform="matrix(0.6133 -1.5182 -1.5426 -0.6036 599.4214 219.2344)" overflow="visible"/>
	
		<use xlink:href="#_x12_360519136_65408_85_x00_"  width="103" height="101" x="-51.5" y="-50.5" transform="matrix(0.7744 -1.089 -1.1065 -0.7621 380.0396 149.8413)" overflow="visible"/>
	
		<use xlink:href="#_x12_360519136_65408_61_x00_"  width="103" height="101" x="-51.5" y="-50.5" transform="matrix(0.9388 -0.9261 -0.9409 -0.924 390.3389 185.3218)" overflow="visible"/>
	
		<use xlink:href="#_x12_360519136_65408_73_x00_"  width="103" height="101" x="-51.5" y="-50.5" transform="matrix(0.6256 -1.0788 -1.0962 -0.6157 335.9526 159.937)" overflow="visible"/>
	
		<use xlink:href="#square"  width="103" height="101" x="-51.5" y="-50.5" transform="matrix(0.9488 -0.0128 -0.013 -0.9338 286.2227 110.5391)" overflow="visible"/>
	
		<use xlink:href="#square"  width="103" height="101" x="-51.5" y="-50.5" transform="matrix(0.9489 0 0 -0.9339 200.1343 120.6533)" overflow="visible"/>
	
		<use xlink:href="#square"  width="103" height="101" x="-51.5" y="-50.5" transform="matrix(0.9453 -0.0816 -0.0829 -0.9303 164.0835 145.1182)" overflow="visible"/>
	
		<use xlink:href="#_x12_360519136_65408_25_x00_"  width="103" height="101" x="-51.5" y="-50.5" transform="matrix(0.7626 -0.5558 -0.5647 -0.7505 142.1016 208.4658)" overflow="visible"/>
	
		<use xlink:href="#_x12_360519136_65408_32_x00_"  width="103" height="101" x="-51.5" y="-50.5" transform="matrix(0.7568 -0.5634 -0.5724 -0.7448 173.6714 197.1055)" overflow="visible"/>
	
		<use xlink:href="#_x12_360519136_65408_30_x00_"  width="103" height="101" x="-51.5" y="-50.5" transform="matrix(0.9471 0.057 0.0579 -0.9321 131.9824 1217.7148)" overflow="visible"/>
	
		<use xlink:href="#_x12_360519136_65408_88_x00_"  width="103" height="101" x="-51.5" y="-50.5" transform="matrix(0.8466 0.4218 0.4286 -0.8332 178.4141 1253.4121)" overflow="visible"/>
	
		<use xlink:href="#_x12_360519136_65408_70_x00_"  width="103" height="101" x="-51.5" y="-50.5" transform="matrix(0.7282 0.5987 0.6083 -0.7167 215.373 1305.4277)" overflow="visible"/>
	
		<use xlink:href="#_x12_360519136_65408_52_x00_"  width="103" height="101" x="-51.5" y="-50.5" transform="matrix(0.8192 0.4714 0.4789 -0.8062 246.2505 1334.9531)" overflow="visible"/>
	
		<use xlink:href="#_x12_360519136_65408_12_x00_"  width="103" height="101" x="-51.5" y="-50.5" transform="matrix(0.9451 0.0838 0.0851 -0.9301 271.9395 1368.9404)" overflow="visible"/>
	
		<use xlink:href="#_x12_360519136_65408_39_x00_"  width="103" height="101" x="-51.5" y="-50.5" transform="matrix(0.9382 0.14 0.1422 -0.9233 316.9878 1365.2568)" overflow="visible"/>
	
		<use xlink:href="#_x12_360519136_65408_53_x00_"  width="103" height="101" x="-51.5" y="-50.5" transform="matrix(0.2807 0.8921 0.9064 -0.2763 365.9946 1346.3379)" overflow="visible"/>
	
		<use xlink:href="#_x12_360519136_65408_93_x00_"  width="103" height="101" x="-51.5" y="-50.5" transform="matrix(0.0056 0.9476 0.9628 -0.0055 428.2808 1330.5449)" overflow="visible"/>
	
		<use xlink:href="#_x12_360519136_65408_87_x00_"  width="103" height="101" x="-51.5" y="-50.5" transform="matrix(1.1139 0.6916 0.7028 -1.0962 531.4282 1304.8379)" overflow="visible"/>
	
		<use xlink:href="#_x12_360519136_65408_99_x00_"  width="103" height="101" x="-51.5" y="-50.5" transform="matrix(0.8033 0.6531 0.6636 -0.7906 584.1089 1355.0098)" overflow="visible"/>
	
		<use xlink:href="#_x12_360519136_65408_96_x00_"  width="103" height="101" x="-51.5" y="-50.5" transform="matrix(1.4216 0.2351 0.2389 -1.3991 556.8745 1332.8418)" overflow="visible"/>
	
		<use xlink:href="#_x12_360519136_65408_60_x00_"  width="103" height="101" x="-51.5" y="-50.5" transform="matrix(1.2473 0.9743 0.99 -1.2276 747.9419 1268.9316)" overflow="visible"/>
	
		<use xlink:href="#_x12_360519136_65408_88_x00_"  width="103" height="101" x="-51.5" y="-50.5" transform="matrix(0.7211 0.7448 0.7568 -0.7097 792.356 1251.5205)" overflow="visible"/>
	
		<use xlink:href="#_x12_360519136_65408_98_x00_"  width="103" height="101" x="-51.5" y="-50.5" transform="matrix(0.8272 1.0412 1.058 -0.8141 890.4146 1160.5811)" overflow="visible"/>
	
		<use xlink:href="#_x12_360519136_65408_99_x00_"  width="103" height="101" x="-51.5" y="-50.5" transform="matrix(1.0385 0.8258 0.8391 -1.022 856.062 1144.1885)" overflow="visible"/>
	
		<use xlink:href="#_x12_360519136_65408_99_x00_"  width="103" height="101" x="-51.5" y="-50.5" transform="matrix(1.2912 0.3197 0.3248 -1.2707 812.4058 1179.4297)" overflow="visible"/>
	
		<use xlink:href="#_x12_360519136_65408_97_x00_"  width="103" height="101" x="-51.5" y="-50.5" transform="matrix(1.537 0.4278 0.4347 -1.5126 843.0151 1178.79)" overflow="visible"/>
	
		<use xlink:href="#square"  width="103" height="101" x="-51.5" y="-50.5" transform="matrix(1.289 0.1984 0.2016 -1.2686 698.5796 1238.3545)" overflow="visible"/>
	
		<use xlink:href="#_x12_360519136_65408_73_x00_"  width="103" height="101" x="-51.5" y="-50.5" transform="matrix(1.5847 0.537 0.5456 -1.5596 620.3696 1308.9531)" overflow="visible"/>
	
		<use xlink:href="#_x12_360519136_65408_91_x00_"  width="103" height="101" x="-51.5" y="-50.5" transform="matrix(1.169 0 0 -1.1505 644.5737 1351.2568)" overflow="visible"/>
	
		<use xlink:href="#_x12_360519136_65408_84_x00_"  width="103" height="101" x="-51.5" y="-50.5" transform="matrix(-0.0596 1.1739 1.1928 0.0586 456.1538 1308.0146)" overflow="visible"/>
	
		<use xlink:href="#_x12_360519136_65408_20_x00_"  width="103" height="101" x="-51.5" y="-50.5" transform="matrix(1.191 1.7658 1.7942 -1.1721 353.3413 1234.1934)" overflow="visible"/>
	
		<use xlink:href="#_x12_360519136_65408_95_x00_"  width="103" height="101" x="-51.5" y="-50.5" transform="matrix(1.0765 0.9073 0.9219 -1.0594 262.9585 1233.1553)" overflow="visible"/>
	
		<use xlink:href="#_x12_360519136_65408_97_x00_"  width="103" height="101" x="-51.5" y="-50.5" transform="matrix(0.8757 0.3606 0.3664 -0.8619 184.3989 1200.6328)" overflow="visible"/>
	
		<use xlink:href="#_x12_360519136_65408_54_x00_"  width="103" height="101" x="-51.5" y="-50.5" transform="matrix(0.9419 0.1136 0.1154 -0.9269 133.2412 1178.8379)" overflow="visible"/>
	
		<use xlink:href="#_x12_360519136_65408_99_x00_"  width="103" height="101" x="-51.5" y="-50.5" transform="matrix(0.9425 0.4621 0.4696 -0.9276 225.4458 1199.6875)" overflow="visible"/>
	
		<use xlink:href="#_x12_360519136_65408_36_x00_"  width="103" height="101" x="-51.5" y="-50.5" transform="matrix(1.6731 0.9738 0.9895 -1.6466 305.6128 1211.8184)" overflow="visible"/>
	
		<use xlink:href="#_x12_360519136_65408_90_x00_"  width="103" height="101" x="-51.5" y="-50.5" transform="matrix(0.935 -0.1593 -0.1619 -0.9202 789.7915 162.4746)" overflow="visible"/>
	
		<use xlink:href="#_x12_360519136_65408_69_x00_"  width="103" height="101" x="-51.5" y="-50.5" transform="matrix(0.9582 -0.0412 -0.0419 -0.943 626.9819 131.604)" overflow="visible"/>
	
		<use xlink:href="#_x12_360519136_65408_65_x00_"  width="103" height="101" x="-51.5" y="-50.5" transform="matrix(0.8675 -0.3784 -0.3845 -0.8538 514.2334 136.5156)" overflow="visible"/>
	
		<use xlink:href="#_x12_360519136_65408_27_x00_"  width="103" height="101" x="-51.5" y="-50.5" transform="matrix(0.8572 -0.4083 -0.4149 -0.8436 462.2803 118.7773)" overflow="visible"/>
	
		<use xlink:href="#square"  width="103" height="101" x="-51.5" y="-50.5" transform="matrix(0.879 -0.3518 -0.3575 -0.8651 415.4399 105.2783)" overflow="visible"/>
	
		<use xlink:href="#square"  width="103" height="101" x="-51.5" y="-50.5" transform="matrix(0.9204 -0.2358 -0.2396 -0.9058 331.7422 114.0723)" overflow="visible"/>
	
		<use xlink:href="#square"  width="103" height="101" x="-51.5" y="-50.5" transform="matrix(1.266 -0.3727 -0.3787 -1.246 306.8281 238.0757)" overflow="visible"/>
	
		<use xlink:href="#_x12_360519136_65408_40_x00_"  width="103" height="101" x="-51.5" y="-50.5" transform="matrix(1.5757 -0.0954 -0.097 -1.5508 272.9282 290.3145)" overflow="visible"/>
	
		<use xlink:href="#_x12_360519136_65408_63_x00_"  width="103" height="101" x="-51.5" y="-50.5" transform="matrix(1.3888 -0.0035 -0.0036 -1.3668 233.5186 307.7051)" overflow="visible"/>
	
		<use xlink:href="#_x12_360519136_65408_90_x00_"  width="103" height="101" x="-51.5" y="-50.5" transform="matrix(0.935 -0.1593 -0.1619 -0.9202 937.6362 54.7852)" overflow="visible"/>
	
		<use xlink:href="#_x12_360519136_65408_78_x00_"  width="103" height="101" x="-51.5" y="-50.5" transform="matrix(0.8476 -0.4224 -0.4292 -0.8342 884.2104 89.5254)" overflow="visible"/>
	
		<use xlink:href="#_x12_360519136_65408_78_x00_"  width="103" height="101" x="-51.5" y="-50.5" transform="matrix(0.8538 -0.4099 -0.4165 -0.8402 919.6978 110.4121)" overflow="visible"/>
	
		<use xlink:href="#_x12_360519136_65408_70_x00_"  width="103" height="101" x="-51.5" y="-50.5" transform="matrix(0.8193 -0.4944 -0.5023 -0.8063 894.7075 146.6553)" overflow="visible"/>
	
		<use xlink:href="#_x12_360519136_65408_66_x00_"  width="103" height="101" x="-51.5" y="-50.5" transform="matrix(0.7757 -0.5752 -0.5844 -0.7634 850.6694 157.688)" overflow="visible"/>
</g>
</svg>
